STARTFONT 2.1
FONT -Monotype-Bembo-Bold-I-Normal--12-120-72-72-P-66-iso8859-1
SIZE 12 72 72
FONTBOUNDINGBOX 18 15 -3 -3

STARTPROPERTIES 22
FOUNDRY "Monotype"
FAMILY_NAME "Bembo"
WEIGHT_NAME "Bold"
SLANT "I"
SETWIDTH_NAME "Normal"
ADD_STYLE_NAME ""
PIXEL_SIZE 12
POINT_SIZE 120
RESOLUTION_X 72
RESOLUTION_Y 72
SPACING "P"
AVERAGE_WIDTH 66
CHARSET_REGISTRY "iso8859"
CHARSET_ENCODING "1"
COPYRIGHT "Copyright (c) 1996 Monotype Typography Ltd."
CAP_HEIGHT 9
X_HEIGHT 6
WEIGHT 10
QUAD_WIDTH 9
DEFAULT_CHAR 32
FONT_DESCENT 3
FONT_ASCENT 12
ENDPROPERTIES

CHARS 191

STARTCHAR space
ENCODING 32
SWIDTH 278 0
DWIDTH 4 0
BBX 0 0 0 0
BITMAP
ENDCHAR

STARTCHAR exclam
ENCODING 33
SWIDTH 323 0
DWIDTH 4 0
BBX 4 8 0 0
BITMAP
30
30
30
60
60
00
C0
C0
ENDCHAR

STARTCHAR quotedbl
ENCODING 34
SWIDTH 552 0
DWIDTH 7 0
BBX 5 4 2 4
BITMAP
D8
D8
48
48
ENDCHAR

STARTCHAR numbersign
ENCODING 35
SWIDTH 668 0
DWIDTH 9 0
BBX 8 8 1 0
BITMAP
12
12
FF
24
24
FF
48
48
ENDCHAR

STARTCHAR dollar
ENCODING 36
SWIDTH 469 0
DWIDTH 6 0
BBX 5 10 1 -1
BITMAP
10
28
68
60
60
30
30
B0
B0
40
ENDCHAR

STARTCHAR percent
ENCODING 37
SWIDTH 844 0
DWIDTH 11 0
BBX 9 8 1 0
BITMAP
2100
5200
9400
A900
4A80
1480
2500
4200
ENDCHAR

STARTCHAR ampersand
ENCODING 38
SWIDTH 729 0
DWIDTH 9 0
BBX 9 8 1 0
BITMAP
3C00
6600
6000
3080
6700
CD00
C200
7C00
ENDCHAR

STARTCHAR quoteright
ENCODING 39
SWIDTH 323 0
DWIDTH 4 0
BBX 3 4 1 4
BITMAP
60
60
20
C0
ENDCHAR

STARTCHAR parenleft
ENCODING 40
SWIDTH 292 0
DWIDTH 4 0
BBX 4 11 1 -3
BITMAP
10
20
60
40
C0
C0
C0
C0
C0
40
40
ENDCHAR

STARTCHAR parenright
ENCODING 41
SWIDTH 292 0
DWIDTH 4 0
BBX 4 11 0 -3
BITMAP
20
20
30
30
30
30
30
20
60
40
80
ENDCHAR

STARTCHAR asterisk
ENCODING 42
SWIDTH 521 0
DWIDTH 7 0
BBX 6 5 1 3
BITMAP
10
D0
3C
70
50
ENDCHAR

STARTCHAR plus
ENCODING 43
SWIDTH 667 0
DWIDTH 9 0
BBX 7 7 1 1
BITMAP
10
10
10
FE
10
10
10
ENDCHAR

STARTCHAR comma
ENCODING 44
SWIDTH 323 0
DWIDTH 4 0
BBX 3 4 -1 -2
BITMAP
60
60
20
C0
ENDCHAR

STARTCHAR minus
ENCODING 45
SWIDTH 667 0
DWIDTH 9 0
BBX 7 1 1 4
BITMAP
FE
ENDCHAR

STARTCHAR period
ENCODING 46
SWIDTH 323 0
DWIDTH 4 0
BBX 2 2 0 0
BITMAP
C0
C0
ENDCHAR

STARTCHAR slash
ENCODING 47
SWIDTH 531 0
DWIDTH 7 0
BBX 5 9 2 -1
BITMAP
18
18
30
30
60
60
60
C0
C0
ENDCHAR

STARTCHAR zero
ENCODING 48
SWIDTH 469 0
DWIDTH 6 0
BBX 5 8 1 0
BITMAP
30
58
58
D8
D8
D0
D0
60
ENDCHAR

STARTCHAR one
ENCODING 49
SWIDTH 469 0
DWIDTH 6 0
BBX 5 8 1 0
BITMAP
18
38
70
30
30
60
60
F0
ENDCHAR

STARTCHAR two
ENCODING 50
SWIDTH 469 0
DWIDTH 6 0
BBX 6 8 0 0
BITMAP
38
4C
0C
18
30
40
F0
F0
ENDCHAR

STARTCHAR three
ENCODING 51
SWIDTH 469 0
DWIDTH 6 0
BBX 7 8 -1 0
BITMAP
1E
06
08
1C
0C
0C
C8
70
ENDCHAR

STARTCHAR four
ENCODING 52
SWIDTH 469 0
DWIDTH 6 0
BBX 6 8 0 0
BITMAP
04
0C
1C
28
58
FC
30
30
ENDCHAR

STARTCHAR five
ENCODING 53
SWIDTH 469 0
DWIDTH 6 0
BBX 7 8 0 0
BITMAP
1E
1E
30
3C
0C
0C
C8
70
ENDCHAR

STARTCHAR six
ENCODING 54
SWIDTH 469 0
DWIDTH 6 0
BBX 6 8 0 0
BITMAP
0C
30
60
70
D8
D8
D0
60
ENDCHAR

STARTCHAR seven
ENCODING 55
SWIDTH 469 0
DWIDTH 6 0
BBX 6 8 1 0
BITMAP
7C
F8
98
10
30
20
60
40
ENDCHAR

STARTCHAR eight
ENCODING 56
SWIDTH 469 0
DWIDTH 6 0
BBX 6 8 0 0
BITMAP
38
6C
68
30
58
D8
D8
70
ENDCHAR

STARTCHAR nine
ENCODING 57
SWIDTH 469 0
DWIDTH 6 0
BBX 6 8 0 0
BITMAP
18
2C
6C
6C
38
18
30
C0
ENDCHAR

STARTCHAR colon
ENCODING 58
SWIDTH 323 0
DWIDTH 4 0
BBX 3 5 0 0
BITMAP
60
60
00
C0
C0
ENDCHAR

STARTCHAR semicolon
ENCODING 59
SWIDTH 323 0
DWIDTH 4 0
BBX 4 7 -1 -2
BITMAP
30
30
00
60
60
20
C0
ENDCHAR

STARTCHAR less
ENCODING 60
SWIDTH 667 0
DWIDTH 9 0
BBX 7 7 1 1
BITMAP
02
0C
30
C0
30
0C
02
ENDCHAR

STARTCHAR equal
ENCODING 61
SWIDTH 667 0
DWIDTH 9 0
BBX 7 4 1 2
BITMAP
FE
00
00
FE
ENDCHAR

STARTCHAR greater
ENCODING 62
SWIDTH 667 0
DWIDTH 9 0
BBX 7 7 1 1
BITMAP
80
60
18
06
18
60
80
ENDCHAR

STARTCHAR question
ENCODING 63
SWIDTH 427 0
DWIDTH 6 0
BBX 4 8 1 0
BITMAP
E0
D0
30
70
60
00
C0
C0
ENDCHAR

STARTCHAR at
ENCODING 64
SWIDTH 833 0
DWIDTH 11 0
BBX 11 11 0 -3
BITMAP
0F80
3040
4020
47A0
8B20
9B20
9E40
5B80
4020
30C0
0F00
ENDCHAR

STARTCHAR A
ENCODING 65
SWIDTH 719 0
DWIDTH 9 0
BBX 9 8 0 0
BITMAP
0300
0700
0B00
1300
1F00
2300
4300
E780
ENDCHAR

STARTCHAR B
ENCODING 66
SWIDTH 656 0
DWIDTH 9 0
BBX 8 8 0 0
BITMAP
7E
1B
33
3E
33
63
67
FE
ENDCHAR

STARTCHAR C
ENCODING 67
SWIDTH 729 0
DWIDTH 9 0
BBX 9 8 1 0
BITMAP
1F80
3180
6080
C000
C000
C100
4300
3E00
ENDCHAR

STARTCHAR D
ENCODING 68
SWIDTH 802 0
DWIDTH 10 0
BBX 10 8 0 0
BITMAP
3F00
1980
30C0
30C0
30C0
60C0
6180
FF00
ENDCHAR

STARTCHAR E
ENCODING 69
SWIDTH 656 0
DWIDTH 9 0
BBX 9 8 0 0
BITMAP
7F80
1880
3200
3E00
3200
6000
6080
FF00
ENDCHAR

STARTCHAR F
ENCODING 70
SWIDTH 604 0
DWIDTH 8 0
BBX 9 8 0 0
BITMAP
7F80
1880
3200
3E00
3200
6000
6000
F000
ENDCHAR

STARTCHAR G
ENCODING 71
SWIDTH 802 0
DWIDTH 10 0
BBX 9 8 1 0
BITMAP
1F80
3180
6080
C000
C780
C300
4600
3E00
ENDCHAR

STARTCHAR H
ENCODING 72
SWIDTH 802 0
DWIDTH 10 0
BBX 11 8 0 0
BITMAP
3DE0
18C0
3180
3F80
3180
6300
6300
F780
ENDCHAR

STARTCHAR I
ENCODING 73
SWIDTH 375 0
DWIDTH 5 0
BBX 6 8 0 0
BITMAP
3C
18
30
30
30
60
60
F0
ENDCHAR

STARTCHAR J
ENCODING 74
SWIDTH 354 0
DWIDTH 5 0
BBX 8 11 -2 -3
BITMAP
0F
06
0C
0C
0C
0C
18
18
18
D0
E0
ENDCHAR

STARTCHAR K
ENCODING 75
SWIDTH 740 0
DWIDTH 10 0
BBX 11 8 0 0
BITMAP
3CE0
1980
3200
3C00
3600
6600
6300
F1C0
ENDCHAR

STARTCHAR L
ENCODING 76
SWIDTH 604 0
DWIDTH 8 0
BBX 8 8 0 0
BITMAP
7C
18
30
30
30
60
61
FF
ENDCHAR

STARTCHAR M
ENCODING 77
SWIDTH 896 0
DWIDTH 12 0
BBX 13 8 0 0
BITMAP
7878
3870
3CE0
2D60
2D60
4EC0
4CC0
E9E0
ENDCHAR

STARTCHAR N
ENCODING 78
SWIDTH 771 0
DWIDTH 10 0
BBX 11 8 0 0
BITMAP
38E0
1840
2C80
2C80
2680
4700
4300
E100
ENDCHAR

STARTCHAR O
ENCODING 79
SWIDTH 823 0
DWIDTH 11 0
BBX 10 8 1 0
BITMAP
1F00
3080
60C0
C0C0
C0C0
C180
4300
3E00
ENDCHAR

STARTCHAR P
ENCODING 80
SWIDTH 635 0
DWIDTH 8 0
BBX 9 8 0 0
BITMAP
3F00
1980
3180
3300
3600
6000
6000
F000
ENDCHAR

STARTCHAR Q
ENCODING 81
SWIDTH 823 0
DWIDTH 11 0
BBX 10 11 1 -3
BITMAP
1F00
3080
60C0
C0C0
C0C0
C180
4300
3E00
0C00
0700
01C0
ENDCHAR

STARTCHAR R
ENCODING 82
SWIDTH 688 0
DWIDTH 9 0
BBX 9 8 0 0
BITMAP
7E00
1B00
3300
3600
3C00
6600
6600
F380
ENDCHAR

STARTCHAR S
ENCODING 83
SWIDTH 521 0
DWIDTH 7 0
BBX 6 8 1 0
BITMAP
3C
64
60
70
38
18
98
F0
ENDCHAR

STARTCHAR T
ENCODING 84
SWIDTH 698 0
DWIDTH 9 0
BBX 9 8 1 0
BITMAP
7F80
8C80
1800
1800
1800
3000
3000
7800
ENDCHAR

STARTCHAR U
ENCODING 85
SWIDTH 750 0
DWIDTH 10 0
BBX 10 8 1 0
BITMAP
79C0
3080
6100
6100
6100
C200
C200
3C00
ENDCHAR

STARTCHAR V
ENCODING 86
SWIDTH 677 0
DWIDTH 9 0
BBX 9 8 1 0
BITMAP
F380
6100
6200
6400
6800
7000
6000
4000
ENDCHAR

STARTCHAR W
ENCODING 87
SWIDTH 1063 0
DWIDTH 14 0
BBX 14 8 1 0
BITMAP
F39C
6108
6310
6720
6B40
7380
6300
4200
ENDCHAR

STARTCHAR X
ENCODING 88
SWIDTH 760 0
DWIDTH 10 0
BBX 10 8 0 0
BITMAP
3DC0
1880
0D00
0600
0E00
1300
2180
F3C0
ENDCHAR

STARTCHAR Y
ENCODING 89
SWIDTH 667 0
DWIDTH 9 0
BBX 8 8 2 0
BITMAP
F7
62
64
68
70
60
60
F0
ENDCHAR

STARTCHAR Z
ENCODING 90
SWIDTH 667 0
DWIDTH 9 0
BBX 9 8 0 0
BITMAP
3F80
2300
0600
0C00
1800
3000
6180
FF00
ENDCHAR

STARTCHAR bracketleft
ENCODING 91
SWIDTH 365 0
DWIDTH 5 0
BBX 5 11 1 -3
BITMAP
38
30
30
30
60
60
60
C0
C0
C0
E0
ENDCHAR

STARTCHAR backslash
ENCODING 92
SWIDTH 302 0
DWIDTH 4 0
BBX 4 9 0 -1
BITMAP
C0
C0
C0
60
60
60
30
30
30
ENDCHAR

STARTCHAR bracketright
ENCODING 93
SWIDTH 365 0
DWIDTH 5 0
BBX 5 11 -1 -3
BITMAP
38
18
18
18
30
30
30
60
60
60
E0
ENDCHAR

STARTCHAR asciicircum
ENCODING 94
SWIDTH 573 0
DWIDTH 7 0
BBX 5 4 2 4
BITMAP
20
50
50
88
ENDCHAR

STARTCHAR underscore
ENCODING 95
SWIDTH 500 0
DWIDTH 7 0
BBX 7 1 0 -2
BITMAP
FE
ENDCHAR

STARTCHAR quoteleft
ENCODING 96
SWIDTH 323 0
DWIDTH 4 0
BBX 2 4 2 4
BITMAP
C0
C0
40
40
ENDCHAR

STARTCHAR a
ENCODING 97
SWIDTH 458 0
DWIDTH 6 0
BBX 6 5 0 0
BITMAP
3C
4C
D8
F8
DC
ENDCHAR

STARTCHAR b
ENCODING 98
SWIDTH 448 0
DWIDTH 6 0
BBX 5 8 0 0
BITMAP
70
30
60
78
58
D8
D0
E0
ENDCHAR

STARTCHAR c
ENCODING 99
SWIDTH 333 0
DWIDTH 4 0
BBX 4 5 0 0
BITMAP
30
50
C0
C0
E0
ENDCHAR

STARTCHAR d
ENCODING 100
SWIDTH 448 0
DWIDTH 6 0
BBX 7 8 0 0
BITMAP
0E
06
0C
3C
4C
D8
F8
DC
ENDCHAR

STARTCHAR e
ENCODING 101
SWIDTH 375 0
DWIDTH 5 0
BBX 5 5 0 0
BITMAP
38
58
F0
C0
70
ENDCHAR

STARTCHAR f
ENCODING 102
SWIDTH 271 0
DWIDTH 4 0
BBX 9 11 -3 -3
BITMAP
0700
0C80
0C00
1E00
0C00
1800
1800
1800
3000
B000
6000
ENDCHAR

STARTCHAR g
ENCODING 103
SWIDTH 438 0
DWIDTH 6 0
BBX 7 8 -1 -3
BITMAP
3E
6C
6C
38
40
78
DC
78
ENDCHAR

STARTCHAR h
ENCODING 104
SWIDTH 500 0
DWIDTH 7 0
BBX 6 8 0 0
BITMAP
70
30
60
6C
7C
6C
D8
DC
ENDCHAR

STARTCHAR i
ENCODING 105
SWIDTH 292 0
DWIDTH 4 0
BBX 4 8 0 0
BITMAP
30
00
00
E0
60
C0
C0
E0
ENDCHAR

STARTCHAR j
ENCODING 106
SWIDTH 271 0
DWIDTH 4 0
BBX 7 11 -3 -3
BITMAP
06
00
00
1C
0C
18
18
18
30
B0
60
ENDCHAR

STARTCHAR k
ENCODING 107
SWIDTH 500 0
DWIDTH 7 0
BBX 7 8 0 0
BITMAP
70
30
60
6E
76
FC
D8
CC
ENDCHAR

STARTCHAR l
ENCODING 108
SWIDTH 271 0
DWIDTH 4 0
BBX 4 8 0 0
BITMAP
70
30
60
60
60
C0
D0
E0
ENDCHAR

STARTCHAR m
ENCODING 109
SWIDTH 750 0
DWIDTH 10 0
BBX 10 5 0 0
BITMAP
ED80
7F80
6D80
DB40
DB80
ENDCHAR

STARTCHAR n
ENCODING 110
SWIDTH 510 0
DWIDTH 7 0
BBX 7 5 0 0
BITMAP
EC
7C
6C
DA
DC
ENDCHAR

STARTCHAR o
ENCODING 111
SWIDTH 448 0
DWIDTH 6 0
BBX 5 5 0 0
BITMAP
38
58
D8
D0
E0
ENDCHAR

STARTCHAR p
ENCODING 112
SWIDTH 490 0
DWIDTH 6 0
BBX 7 8 -2 -3
BITMAP
36
1E
36
34
38
60
60
F0
ENDCHAR

STARTCHAR q
ENCODING 113
SWIDTH 448 0
DWIDTH 6 0
BBX 6 8 0 -3
BITMAP
3C
4C
D8
F8
D8
30
30
78
ENDCHAR

STARTCHAR r
ENCODING 114
SWIDTH 333 0
DWIDTH 4 0
BBX 5 5 0 0
BITMAP
D8
78
60
C0
C0
ENDCHAR

STARTCHAR s
ENCODING 115
SWIDTH 344 0
DWIDTH 4 0
BBX 4 5 -1 0
BITMAP
30
60
30
30
E0
ENDCHAR

STARTCHAR t
ENCODING 116
SWIDTH 302 0
DWIDTH 4 0
BBX 4 6 0 0
BITMAP
60
F0
60
C0
D0
E0
ENDCHAR

STARTCHAR u
ENCODING 117
SWIDTH 500 0
DWIDTH 7 0
BBX 7 5 0 0
BITMAP
EC
6C
D8
FA
DC
ENDCHAR

STARTCHAR v
ENCODING 118
SWIDTH 427 0
DWIDTH 6 0
BBX 6 5 0 0
BITMAP
EC
64
68
70
60
ENDCHAR

STARTCHAR w
ENCODING 119
SWIDTH 667 0
DWIDTH 9 0
BBX 9 5 0 0
BITMAP
ED80
6C80
6D00
7E00
6C00
ENDCHAR

STARTCHAR x
ENCODING 120
SWIDTH 500 0
DWIDTH 7 0
BBX 7 5 0 0
BITMAP
66
B8
30
74
D8
ENDCHAR

STARTCHAR y
ENCODING 121
SWIDTH 458 0
DWIDTH 6 0
BBX 6 8 0 -3
BITMAP
EC
64
68
68
70
60
60
F0
ENDCHAR

STARTCHAR z
ENCODING 122
SWIDTH 490 0
DWIDTH 6 0
BBX 6 5 0 0
BITMAP
3C
58
20
74
B8
ENDCHAR

STARTCHAR braceleft
ENCODING 123
SWIDTH 344 0
DWIDTH 4 0
BBX 3 11 1 -3
BITMAP
20
40
40
40
40
80
40
40
40
40
20
ENDCHAR

STARTCHAR bar
ENCODING 124
SWIDTH 566 0
DWIDTH 7 0
BBX 1 11 3 -3
BITMAP
80
80
80
80
80
80
80
80
80
80
80
ENDCHAR

STARTCHAR braceright
ENCODING 125
SWIDTH 344 0
DWIDTH 4 0
BBX 3 11 1 -3
BITMAP
80
40
40
40
40
20
40
40
40
40
80
ENDCHAR

STARTCHAR asciitilde
ENCODING 126
SWIDTH 573 0
DWIDTH 7 0
BBX 7 2 0 3
BITMAP
72
9C
ENDCHAR

STARTCHAR space
ENCODING 160
SWIDTH 278 0
DWIDTH 4 0
BBX 0 0 0 0
BITMAP
ENDCHAR

STARTCHAR exclamdown
ENCODING 161
SWIDTH 323 0
DWIDTH 4 0
BBX 4 8 0 -3
BITMAP
30
30
00
60
60
C0
C0
C0
ENDCHAR

STARTCHAR cent
ENCODING 162
SWIDTH 333 0
DWIDTH 4 0
BBX 5 11 0 -3
BITMAP
08
08
08
38
50
D0
D0
F0
20
20
20
ENDCHAR

STARTCHAR sterling
ENCODING 163
SWIDTH 760 0
DWIDTH 10 0
BBX 9 11 0 -3
BITMAP
0380
0680
0400
0C00
1800
1000
7C00
2000
7100
D900
8E00
ENDCHAR

STARTCHAR currency
ENCODING 164
SWIDTH 667 0
DWIDTH 9 0
BBX 6 6 2 1
BITMAP
B4
78
CC
CC
78
B4
ENDCHAR

STARTCHAR yen
ENCODING 165
SWIDTH 500 0
DWIDTH 7 0
BBX 9 8 0 0
BITMAP
7B80
3100
3200
FF00
3800
FE00
3000
7800
ENDCHAR

STARTCHAR brokenbar
ENCODING 166
SWIDTH 566 0
DWIDTH 7 0
BBX 1 11 3 -3
BITMAP
80
80
80
80
80
00
80
80
80
80
80
ENDCHAR

STARTCHAR section
ENCODING 167
SWIDTH 448 0
DWIDTH 6 0
BBX 7 12 -1 -3
BITMAP
0E
10
30
58
48
6C
24
34
14
18
10
E0
ENDCHAR

STARTCHAR dieresis
ENCODING 168
SWIDTH 333 0
DWIDTH 4 0
BBX 5 2 1 6
BITMAP
D8
D8
ENDCHAR

STARTCHAR copyright
ENCODING 169
SWIDTH 750 0
DWIDTH 10 0
BBX 9 9 1 0
BITMAP
3E00
4100
9C80
B680
B080
B680
9C80
4100
3E00
ENDCHAR

STARTCHAR ordfeminine
ENCODING 170
SWIDTH 354 0
DWIDTH 5 0
BBX 3 4 2 4
BITMAP
60
A0
A0
E0
ENDCHAR

STARTCHAR guillemotleft
ENCODING 171
SWIDTH 427 0
DWIDTH 6 0
BBX 6 5 0 0
BITMAP
24
48
90
90
48
ENDCHAR

STARTCHAR logicalnot
ENCODING 172
SWIDTH 667 0
DWIDTH 9 0
BBX 7 4 1 2
BITMAP
FE
02
02
02
ENDCHAR

STARTCHAR hyphen
ENCODING 173
SWIDTH 417 0
DWIDTH 5 0
BBX 5 1 0 2
BITMAP
F8
ENDCHAR

STARTCHAR registered
ENCODING 174
SWIDTH 750 0
DWIDTH 10 0
BBX 9 9 1 0
BITMAP
3E00
4100
BC80
B680
BC80
B680
B680
4100
3E00
ENDCHAR

STARTCHAR macron
ENCODING 175
SWIDTH 333 0
DWIDTH 4 0
BBX 4 1 1 7
BITMAP
F0
ENDCHAR

STARTCHAR degree
ENCODING 176
SWIDTH 396 0
DWIDTH 5 0
BBX 4 4 2 4
BITMAP
60
90
90
60
ENDCHAR

STARTCHAR plusminus
ENCODING 177
SWIDTH 668 0
DWIDTH 9 0
BBX 7 9 1 0
BITMAP
10
10
10
FE
10
10
10
00
FE
ENDCHAR

STARTCHAR twosuperior
ENCODING 178
SWIDTH 292 0
DWIDTH 4 0
BBX 4 5 1 3
BITMAP
60
10
20
40
E0
ENDCHAR

STARTCHAR threesuperior
ENCODING 179
SWIDTH 292 0
DWIDTH 4 0
BBX 3 5 1 3
BITMAP
60
20
60
20
C0
ENDCHAR

STARTCHAR acute
ENCODING 180
SWIDTH 333 0
DWIDTH 4 0
BBX 3 4 2 4
BITMAP
60
80
C0
C0
ENDCHAR

STARTCHAR mu
ENCODING 181
SWIDTH 573 0
DWIDTH 7 0
BBX 9 8 -1 -3
BITMAP
1980
1980
3300
3700
3B80
4000
C000
C000
ENDCHAR

STARTCHAR paragraph
ENCODING 182
SWIDTH 542 0
DWIDTH 7 0
BBX 7 11 0 -3
BITMAP
7E
F4
F4
F4
F4
74
14
14
14
14
14
ENDCHAR

STARTCHAR periodcentered
ENCODING 183
SWIDTH 323 0
DWIDTH 4 0
BBX 2 2 2 3
BITMAP
C0
C0
ENDCHAR

STARTCHAR cedilla
ENCODING 184
SWIDTH 333 0
DWIDTH 4 0
BBX 4 3 -1 -3
BITMAP
60
30
E0
ENDCHAR

STARTCHAR onesuperior
ENCODING 185
SWIDTH 292 0
DWIDTH 4 0
BBX 3 5 1 3
BITMAP
60
20
40
40
E0
ENDCHAR

STARTCHAR ordmasculine
ENCODING 186
SWIDTH 333 0
DWIDTH 4 0
BBX 4 5 1 3
BITMAP
30
50
90
A0
C0
ENDCHAR

STARTCHAR guillemotright
ENCODING 187
SWIDTH 427 0
DWIDTH 6 0
BBX 6 5 0 0
BITMAP
48
24
24
48
90
ENDCHAR

STARTCHAR onequarter
ENCODING 188
SWIDTH 844 0
DWIDTH 11 0
BBX 9 9 1 0
BITMAP
6000
2100
4200
4400
E900
1300
2500
4F80
8200
ENDCHAR

STARTCHAR onehalf
ENCODING 189
SWIDTH 844 0
DWIDTH 11 0
BBX 9 9 1 0
BITMAP
6000
2100
4200
4400
EB00
1080
2100
4200
8700
ENDCHAR

STARTCHAR threequarters
ENCODING 190
SWIDTH 844 0
DWIDTH 11 0
BBX 9 9 1 0
BITMAP
6000
2100
4200
2400
C900
1300
2500
4F80
8200
ENDCHAR

STARTCHAR questiondown
ENCODING 191
SWIDTH 427 0
DWIDTH 6 0
BBX 4 8 0 -3
BITMAP
30
30
00
60
E0
C0
B0
70
ENDCHAR

STARTCHAR Agrave
ENCODING 192
SWIDTH 719 0
DWIDTH 9 0
BBX 9 11 0 0
BITMAP
0600
0300
0000
0300
0700
0B00
1300
1F00
2300
4300
E780
ENDCHAR

STARTCHAR Aacute
ENCODING 193
SWIDTH 719 0
DWIDTH 9 0
BBX 9 11 0 0
BITMAP
0180
0300
0000
0300
0700
0B00
1300
1F00
2300
4300
E780
ENDCHAR

STARTCHAR Acircumflex
ENCODING 194
SWIDTH 719 0
DWIDTH 9 0
BBX 9 11 0 0
BITMAP
0180
0280
0000
0300
0700
0B00
1300
1F00
2300
4300
E780
ENDCHAR

STARTCHAR Atilde
ENCODING 195
SWIDTH 719 0
DWIDTH 9 0
BBX 10 11 0 0
BITMAP
0340
0580
0000
0300
0700
0B00
1300
1F00
2300
4300
E780
ENDCHAR

STARTCHAR Adieresis
ENCODING 196
SWIDTH 719 0
DWIDTH 9 0
BBX 10 11 0 0
BITMAP
06C0
06C0
0000
0300
0700
0B00
1300
1F00
2300
4300
E780
ENDCHAR

STARTCHAR Aring
ENCODING 197
SWIDTH 719 0
DWIDTH 9 0
BBX 9 12 0 0
BITMAP
0300
0480
0300
0000
0300
0700
0B00
1300
1F00
2300
4300
E780
ENDCHAR

STARTCHAR AE
ENCODING 198
SWIDTH 958 0
DWIDTH 12 0
BBX 13 8 0 0
BITMAP
07F8
0788
0B20
13E0
1F20
2600
4610
EFE0
ENDCHAR

STARTCHAR Ccedilla
ENCODING 199
SWIDTH 729 0
DWIDTH 9 0
BBX 9 11 1 -3
BITMAP
1F80
3180
6080
C000
C000
C100
4300
3E00
1800
0C00
7800
ENDCHAR

STARTCHAR Egrave
ENCODING 200
SWIDTH 656 0
DWIDTH 9 0
BBX 9 11 0 0
BITMAP
0C00
0600
0000
7F80
1880
3200
3E00
3200
6000
6080
FF00
ENDCHAR

STARTCHAR Eacute
ENCODING 201
SWIDTH 656 0
DWIDTH 9 0
BBX 9 11 0 0
BITMAP
0600
0C00
0000
7F80
1880
3200
3E00
3200
6000
6080
FF00
ENDCHAR

STARTCHAR Ecircumflex
ENCODING 202
SWIDTH 656 0
DWIDTH 9 0
BBX 9 11 0 0
BITMAP
0300
0500
0000
7F80
1880
3200
3E00
3200
6000
6080
FF00
ENDCHAR

STARTCHAR Edieresis
ENCODING 203
SWIDTH 656 0
DWIDTH 9 0
BBX 9 11 0 0
BITMAP
0D80
0D80
0000
7F80
1880
3200
3E00
3200
6000
6080
FF00
ENDCHAR

STARTCHAR Igrave
ENCODING 204
SWIDTH 375 0
DWIDTH 5 0
BBX 6 11 0 0
BITMAP
30
18
00
3C
18
30
30
30
60
60
F0
ENDCHAR

STARTCHAR Iacute
ENCODING 205
SWIDTH 375 0
DWIDTH 5 0
BBX 6 11 0 0
BITMAP
0C
18
00
3C
18
30
30
30
60
60
F0
ENDCHAR

STARTCHAR Icircumflex
ENCODING 206
SWIDTH 375 0
DWIDTH 5 0
BBX 6 11 0 0
BITMAP
0C
14
00
3C
18
30
30
30
60
60
F0
ENDCHAR

STARTCHAR Idieresis
ENCODING 207
SWIDTH 375 0
DWIDTH 5 0
BBX 7 11 0 0
BITMAP
36
36
00
3C
18
30
30
30
60
60
F0
ENDCHAR

STARTCHAR Eth
ENCODING 208
SWIDTH 802 0
DWIDTH 10 0
BBX 10 8 0 0
BITMAP
7F00
1980
30C0
30C0
F8C0
60C0
6180
FF00
ENDCHAR

STARTCHAR Ntilde
ENCODING 209
SWIDTH 771 0
DWIDTH 10 0
BBX 11 11 0 0
BITMAP
0680
0B00
0000
30E0
1840
2C80
2C80
2680
4700
4300
E100
ENDCHAR

STARTCHAR Ograve
ENCODING 210
SWIDTH 823 0
DWIDTH 11 0
BBX 10 11 1 0
BITMAP
0C00
0600
0000
1F00
3080
60C0
C0C0
C0C0
C180
4300
3E00
ENDCHAR

STARTCHAR Oacute
ENCODING 211
SWIDTH 823 0
DWIDTH 11 0
BBX 10 11 1 0
BITMAP
0300
0600
0000
1F00
3080
60C0
C0C0
C0C0
C180
4300
3E00
ENDCHAR

STARTCHAR Ocircumflex
ENCODING 212
SWIDTH 823 0
DWIDTH 11 0
BBX 10 11 1 0
BITMAP
0300
0500
0000
1F00
3080
60C0
C0C0
C0C0
C180
4300
3E00
ENDCHAR

STARTCHAR Otilde
ENCODING 213
SWIDTH 823 0
DWIDTH 11 0
BBX 10 11 1 0
BITMAP
0680
0B00
0000
1F00
3080
60C0
C0C0
C0C0
C180
4300
3E00
ENDCHAR

STARTCHAR Odieresis
ENCODING 214
SWIDTH 823 0
DWIDTH 11 0
BBX 10 11 1 0
BITMAP
0D80
0D80
0000
1F00
3080
60C0
C0C0
C0C0
C180
4300
3E00
ENDCHAR

STARTCHAR multiply
ENCODING 215
SWIDTH 667 0
DWIDTH 9 0
BBX 6 6 2 1
BITMAP
84
48
30
30
48
84
ENDCHAR

STARTCHAR Oslash
ENCODING 216
SWIDTH 823 0
DWIDTH 11 0
BBX 10 10 1 -1
BITMAP
0040
1FC0
3180
63C0
C6C0
CCC0
D980
7300
7E00
C000
ENDCHAR

STARTCHAR Ugrave
ENCODING 217
SWIDTH 750 0
DWIDTH 10 0
BBX 10 11 1 0
BITMAP
0C00
0600
0000
79C0
3080
6100
6100
6100
C200
C200
3C00
ENDCHAR

STARTCHAR Uacute
ENCODING 218
SWIDTH 750 0
DWIDTH 10 0
BBX 10 11 1 0
BITMAP
0300
0600
0000
79C0
3080
6100
6100
6100
C200
C200
3C00
ENDCHAR

STARTCHAR Ucircumflex
ENCODING 219
SWIDTH 750 0
DWIDTH 10 0
BBX 10 11 1 0
BITMAP
0300
0500
0000
79C0
3080
6100
6100
6100
C200
C200
3C00
ENDCHAR

STARTCHAR Udieresis
ENCODING 220
SWIDTH 750 0
DWIDTH 10 0
BBX 10 11 1 0
BITMAP
0D80
0D80
0000
79C0
3080
6100
6100
6100
C200
C200
3C00
ENDCHAR

STARTCHAR Yacute
ENCODING 221
SWIDTH 667 0
DWIDTH 9 0
BBX 8 11 1 0
BITMAP
0C
18
00
F7
62
64
68
70
60
60
F0
ENDCHAR

STARTCHAR Thorn
ENCODING 222
SWIDTH 635 0
DWIDTH 8 0
BBX 8 8 0 0
BITMAP
3C
18
3E
33
33
6E
60
F0
ENDCHAR

STARTCHAR germandbls
ENCODING 223
SWIDTH 490 0
DWIDTH 6 0
BBX 10 11 -3 -3
BITMAP
0380
06C0
06C0
0580
0CC0
08C0
1980
1B00
3000
2000
C000
ENDCHAR

STARTCHAR agrave
ENCODING 224
SWIDTH 458 0
DWIDTH 6 0
BBX 6 8 0 0
BITMAP
30
18
00
3C
4C
D8
F8
DC
ENDCHAR

STARTCHAR aacute
ENCODING 225
SWIDTH 458 0
DWIDTH 6 0
BBX 6 8 0 0
BITMAP
0C
18
00
3C
4C
D8
F8
DC
ENDCHAR

STARTCHAR acircumflex
ENCODING 226
SWIDTH 458 0
DWIDTH 6 0
BBX 6 8 0 0
BITMAP
0C
14
00
3C
4C
D8
F8
DC
ENDCHAR

STARTCHAR atilde
ENCODING 227
SWIDTH 458 0
DWIDTH 6 0
BBX 7 8 0 0
BITMAP
1A
2C
00
3C
4C
D8
F8
DC
ENDCHAR

STARTCHAR adieresis
ENCODING 228
SWIDTH 458 0
DWIDTH 6 0
BBX 7 8 0 0
BITMAP
36
36
00
3C
4C
D8
F8
DC
ENDCHAR

STARTCHAR aring
ENCODING 229
SWIDTH 458 0
DWIDTH 6 0
BBX 6 9 0 0
BITMAP
08
14
08
00
3C
4C
D8
F8
DC
ENDCHAR

STARTCHAR ae
ENCODING 230
SWIDTH 615 0
DWIDTH 8 0
BBX 7 5 1 0
BITMAP
3E
5A
DC
F0
DC
ENDCHAR

STARTCHAR ccedilla
ENCODING 231
SWIDTH 333 0
DWIDTH 4 0
BBX 4 8 0 -3
BITMAP
30
50
C0
C0
E0
40
60
C0
ENDCHAR

STARTCHAR egrave
ENCODING 232
SWIDTH 375 0
DWIDTH 5 0
BBX 5 8 0 0
BITMAP
30
18
00
38
58
F0
C0
70
ENDCHAR

STARTCHAR eacute
ENCODING 233
SWIDTH 375 0
DWIDTH 5 0
BBX 5 8 0 0
BITMAP
18
30
00
38
58
F0
C0
70
ENDCHAR

STARTCHAR ecircumflex
ENCODING 234
SWIDTH 375 0
DWIDTH 5 0
BBX 5 8 0 0
BITMAP
18
28
00
38
58
F0
C0
70
ENDCHAR

STARTCHAR edieresis
ENCODING 235
SWIDTH 375 0
DWIDTH 5 0
BBX 6 8 0 0
BITMAP
6C
6C
00
38
58
F0
C0
70
ENDCHAR

STARTCHAR igrave
ENCODING 236
SWIDTH 292 0
DWIDTH 4 0
BBX 4 8 0 0
BITMAP
60
30
00
E0
60
C0
C0
E0
ENDCHAR

STARTCHAR iacute
ENCODING 237
SWIDTH 292 0
DWIDTH 4 0
BBX 4 8 0 0
BITMAP
30
60
00
E0
60
C0
C0
E0
ENDCHAR

STARTCHAR icircumflex
ENCODING 238
SWIDTH 292 0
DWIDTH 4 0
BBX 4 8 0 0
BITMAP
30
50
00
E0
60
C0
C0
E0
ENDCHAR

STARTCHAR idieresis
ENCODING 239
SWIDTH 292 0
DWIDTH 4 0
BBX 5 8 0 0
BITMAP
D8
D8
00
E0
60
C0
C0
E0
ENDCHAR

STARTCHAR eth
ENCODING 240
SWIDTH 417 0
DWIDTH 5 0
BBX 6 9 0 0
BITMAP
10
1C
28
08
38
58
D8
D0
E0
ENDCHAR

STARTCHAR ntilde
ENCODING 241
SWIDTH 510 0
DWIDTH 7 0
BBX 7 8 0 0
BITMAP
1A
2C
00
EC
7C
6C
DA
DC
ENDCHAR

STARTCHAR ograve
ENCODING 242
SWIDTH 448 0
DWIDTH 6 0
BBX 5 8 0 0
BITMAP
30
18
00
38
58
D8
D0
E0
ENDCHAR

STARTCHAR oacute
ENCODING 243
SWIDTH 448 0
DWIDTH 6 0
BBX 6 8 0 0
BITMAP
0C
18
00
38
58
D8
D0
E0
ENDCHAR

STARTCHAR ocircumflex
ENCODING 244
SWIDTH 448 0
DWIDTH 6 0
BBX 5 8 0 0
BITMAP
18
28
00
38
58
D8
D0
E0
ENDCHAR

STARTCHAR otilde
ENCODING 245
SWIDTH 448 0
DWIDTH 6 0
BBX 6 8 0 0
BITMAP
34
58
00
38
58
D8
D0
E0
ENDCHAR

STARTCHAR odieresis
ENCODING 246
SWIDTH 448 0
DWIDTH 6 0
BBX 6 8 1 0
BITMAP
6C
6C
00
38
58
D8
D0
E0
ENDCHAR

STARTCHAR divide
ENCODING 247
SWIDTH 668 0
DWIDTH 9 0
BBX 7 7 1 1
BITMAP
10
10
00
FE
00
10
10
ENDCHAR

STARTCHAR oslash
ENCODING 248
SWIDTH 448 0
DWIDTH 6 0
BBX 5 7 0 -1
BITMAP
08
38
58
F8
D0
E0
80
ENDCHAR

STARTCHAR ugrave
ENCODING 249
SWIDTH 500 0
DWIDTH 7 0
BBX 7 8 0 0
BITMAP
30
18
00
EC
6C
D8
FA
DC
ENDCHAR

STARTCHAR uacute
ENCODING 250
SWIDTH 500 0
DWIDTH 7 0
BBX 7 8 0 0
BITMAP
0C
18
00
EC
6C
D8
FA
DC
ENDCHAR

STARTCHAR ucircumflex
ENCODING 251
SWIDTH 500 0
DWIDTH 7 0
BBX 7 8 0 0
BITMAP
18
28
00
EC
6C
D8
FA
DC
ENDCHAR

STARTCHAR udieresis
ENCODING 252
SWIDTH 500 0
DWIDTH 7 0
BBX 7 8 0 0
BITMAP
6C
6C
00
EC
6C
D8
FA
DC
ENDCHAR

STARTCHAR yacute
ENCODING 253
SWIDTH 458 0
DWIDTH 6 0
BBX 6 11 0 -3
BITMAP
0C
18
00
EC
64
68
68
70
60
60
F0
ENDCHAR

STARTCHAR thorn
ENCODING 254
SWIDTH 490 0
DWIDTH 6 0
BBX 8 11 -2 -3
BITMAP
38
18
18
1F
3B
33
36
3C
60
60
F0
ENDCHAR

STARTCHAR ydieresis
ENCODING 255
SWIDTH 458 0
DWIDTH 6 0
BBX 6 11 0 -3
BITMAP
6C
6C
00
EC
64
68
68
70
60
60
F0
ENDCHAR
ENDFONT
